<?xml version="1.0" encoding="utf-8"?>
<!-- Generator: Adobe Illustrator 24.0.1, SVG Export Plug-In . SVG Version: 6.00 Build 0)  -->
<svg version="1.1" id="Layer_1" xmlns="http://www.w3.org/2000/svg" xmlns:xlink="http://www.w3.org/1999/xlink" x="0px" y="0px"
	 viewBox="0 0 202 132" style="enable-background:new 0 0 202 132;" xml:space="preserve">
<style type="text/css">
	.st0{fill:#090D15;}
</style>
<g>
	<path class="st0" d="M146.1,56c3.3-0.1,5.9-1.4,8.8-4.7c1.6-1.8,2.9-6.1,1.7-8.7c-1-2.1-3.2-3.9-5.7-3.9c-3.8,0-6.4,3.2-6.3,6.6
		c0,0.7,0.2,1.4,0.4,1.9c0.1,0.3,0.8,1.7,0.6,3.2c-0.2,2.2-0.6,2.8-0.9,3.6c-0.1,0.2-0.1,0.3-0.1,0.5C144.6,55.3,145.3,56,146.1,56z
		"/>
	<g>
		<path class="st0" d="M108.2,77.4C108.2,77.4,108.2,77.4,108.2,77.4L108.2,77.4C108.2,77.4,108.2,77.4,108.2,77.4L108.2,77.4z"/>
		<path class="st0" d="M198.3,104.2c-2.7-1.6-6.2-0.7-7.7,2c-1.7,2.9-6.6,5.5-10.7,5.6c-3.3,0.1-6.1-1-8.5-3.3
			c-3.6-3.6-5.7-9.5-5.6-16.4c0.1-5.9,1.8-11.4,4.9-15.5c2-2.6,5.4-5.8,10.5-6c1.8-0.1,3.3,0.2,4.5,0.6c0-0.8,0.1-1.6,0.4-2.3
			c0.2-0.5,0.7-0.8,1.2-0.6c0.5,0.2,0.8,0.7,0.6,1.2c-0.2,0.7-0.3,1.4-0.3,2.1c0,0.2,0,0.4,0.1,0.6c0,0,0,0,0,0
			c0.6,3,3.3,5.2,6.4,5.1c3.5-0.1,6.2-3.1,6.1-6.6c0-0.9-0.3-1.8-0.6-2.5c-0.2-0.5-0.6-1-1-1.4c-4.8-5.2-10.8-7.7-17.9-7.5
			c-13.7,0.5-24.4,12.8-26,29.1c-0.6,4.4-0.9,13.3-0.8,14.7c0,1.4-1.1,2.8-2.8,2.8c-1.6,0-2.8-1.3-2.8-2.8c0-0.1,0.2-9.3,0.6-13.3
			c0.6-6.3,1.9-15.6,2.7-19.7c0.8-3.9-1.8-6.9-4.9-7.4c-3.1-0.6-6.6,1.1-7.2,5c-0.9,5.1-1.4,10.2-2.2,21.2c-0.6,8-0.5,13.2-0.5,14.2
			c0,1.6-1.3,2.8-2.8,2.8c-1.5,0-2.8-1.2-2.8-2.8c-0.1-4.5,0.1-8.9,0.4-13c0.3-5,0.8-13.7,0.9-22.8c0.1-9.4-8.5-15.3-15.3-14.1
			c-5.2,0.9-9.2,4.5-11.2,7.6c-0.4,0.7-0.8,1.4-1.3,2.2c-0.2,0.3-0.5,0.5-0.9,0.5c-0.2,0-0.3,0-0.5-0.1c-0.5-0.3-0.6-0.9-0.4-1.3
			c0.7-1.4,1.5-2.5,2.2-3.5c-1.6-5.7-5.8-11.2-10.8-11.2c-9.6,0-13.8,12.7-12.9,21.3c0,0,0.9,13.8,1.1,18.4
			c0.2,4.6,0.2,16.2,0.2,16.2c0,0,0,0,0,0c0,0,0,0,0,0c0,1.6-1.2,2.8-2.8,2.8c-1.7,0-2.8-1.4-2.8-2.8c0-0.9,0.2-8.6-0.2-16.7
			c-0.5-10.7-1-18.2-1-18.3c-0.2-3.1-2.8-5.5-6-5.3c-1.2,0.1-2.2,0.5-3.1,1.1c1,0.6,2,1.4,3,2.2c0.4,0.4,0.5,1,0.1,1.4
			C69.6,67.8,69.3,68,69,68c-0.2,0-0.4-0.1-0.6-0.2c-2-1.7-5-3.6-8.6-4.5c-1.4-0.3-2.8-0.4-4.3-0.4c-6.6,0-13.1,3-18.4,8.4
			c-5,5.2-8.4,12-9.5,19.3v0c-1.3,8.5,0.7,16.7,5.6,22.3c3.9,4.6,9.4,7.1,15.4,7.1c0,0,0,0,0,0c6.1,0,12.2-2.6,17.2-7.3
			c0.2-0.2,0.4-0.3,0.7-0.3c0.4,0,0.9,0.2,1.1,0.6c0,0,0,0,0,0c2.4,4.3,7,6.9,12.1,7v0c3.7,0,7.2-1.3,9.9-3.9
			c2.8-2.7,4.3-6.5,4.3-10.3c0,0-0.2-14.3-0.4-19c-0.2-5.5-1-22.2-1-22.2c0-0.6,0.5-1.4,1.4-1.4c1,0,1.4,0.9,1.4,1.4
			c0,0,0.8,16.5,1,22c0.2,7,0.5,27.7,0.5,27.7c0,3.1,2.5,5.7,5.7,5.7s5.7-2.5,5.7-5.7l0-36.6c0,0.1,0,0,0,0v0l0,0c0,0,0,0,0,0
			c0-0.6,0.1-1.2,0.2-1.7c0.3-1.6,1-3,2.1-4.1c1.6-1.7,3.9-2.7,6.3-2.7c2.6,0,5.5,1.6,7,3.9c0.3,0.5,0.2,1.1-0.3,1.4
			c-0.5,0.3-1.1,0.2-1.4-0.3c-1.1-1.7-3.4-3-5.4-3c-0.4,0-0.9,0-1.3,0.1c3.2,0.4,5.7,3.1,5.7,6.4c0,5.3-0.6,7.9-1,14.6
			c-0.4,6-0.5,11.9-0.6,13.1c-0.2,4.1,1,7.6,3.6,10.4c2.5,2.7,6,4.3,9.8,4.3c3.3,0,6.8-1.3,9.5-3.5c0.1-0.1,0.2-0.2,0.3-0.3l0.1-0.1
			c0.6-0.6,1.2-1.1,1.7-1.7c0.3-0.4,1-0.5,1.4-0.1c0.4,0.3,0.5,1,0.1,1.4c-0.6,0.7-1.2,1.3-1.8,1.9c2.1,1.5,4.6,2.3,7.4,2.5
			c0.2,0,0.4,0,0.5,0c4.1,0,7.3-2,9.7-4.5c0.3-0.4,0.6-0.7,0.9-1.1c0.3-0.4,0.9-0.5,1.4-0.2c0.4,0.3,0.5,0.9,0.2,1.4
			c-0.2,0.3-0.6,0.7-1,1.2c0,0,0,0,0.1,0.1c4.4,4.3,9.9,6.5,15.9,6.5c0.3,0,0.6,0,1,0c3.7-0.1,7.8-1.3,11.3-3.2
			c3.9-2.1,6.9-4.9,8.8-8C201.9,109.2,201,105.7,198.3,104.2z M64.3,89.2c-1.4,9-8.7,16.6-15.9,16.6c-3.2,0-5.3-1.6-6.5-2.9
			c-2.6-2.9-3.6-7.3-2.8-12.1v0c1.4-9,8.7-16.6,15.9-16.6c3.2,0,5.3,1.6,6.5,2.9C64,79.9,65,84.3,64.3,89.2z"/>
		<path class="st0" d="M15.4,64.5c-0.5-0.3-0.6-0.9-0.3-1.4c0.3-0.5,0.9-0.6,1.4-0.3c1.1,0.7,2.3,1.3,3.5,1.8c0,0,0,0,0,0
			c0.2,0.1,0.4,0.1,0.6,0.2c2.4,0.8,5,1.2,7.7,1c0,0,0,0,0,0c6.5-0.4,12.8-3.7,17.7-9.4c4.7-5.4,7.6-12.4,8.3-19.6
			c0.8-8.5-1.7-16.5-6.8-21.7c-4.2-4.3-9.7-6.5-15.7-6.1c-4.1,0.2-8,1.6-11.6,4c-2.1,1.4-4,3.2-5.8,5.2c-1.3,1.5-2.3,3.3-3.4,5
			l0,0.1c-0.2,0.3-0.5,0.5-0.8,0.5c-0.2,0-0.3,0-0.5-0.1c-0.5-0.3-0.6-0.9-0.3-1.3l0-0.1c0.7-1.2,1.4-2.4,2.3-3.6
			c-1.2-1.9-3.5-3-5.8-2.5c-3,0.6-5,3.5-4.5,6.5l0,0l0.1,0.7c0.5,3.8,3.4,24.4,6.8,47.2c0.7,4.4,1.4,8.9,2.1,13.3l5,34.1l0,0
			c0.5,2.9,2.9,5.1,5.9,5.1c0,0,0,0,0,0c0,0,0.1,0,0.1,0c0,0,0.1,0,0.1,0c0.1,0,0.2,0,0.3,0c0.2,0,0.4,0,0.5-0.1
			c0.7-0.1,1.3-0.3,1.9-0.6c0.1,0,0.2-0.1,0.2-0.1c0,0,0,0,0,0c1.8-1.1,3.1-3,3.1-5.3c0-0.4-6-40.4-7.5-50.4
			C18.2,66,16.7,65.3,15.4,64.5z M17.4,39.4c0.9-9.5,7.7-17.8,14.9-18.2c0.5,0,0.9,0,1.4,0c3.8,0.2,6.6,1.5,8.9,4.2
			c2.1,2.5,3.4,5.7,3.6,9.5c0,0.5-0.4,1-0.9,1c0,0,0,0-0.1,0c-0.5,0-0.9-0.4-1-0.9c-0.2-3.4-1.3-6.2-3.2-8.4
			c-0.1-0.1-0.1-0.1-0.2-0.2c1.4,2.7,2,6.1,1.7,9.8c-0.9,9.5-7.7,17.8-14.9,18.2c-3.2,0.2-5.4-1.3-6.7-2.6
			C18.3,49,17,44.5,17.4,39.4z"/>
	</g>
</g>
</svg>
